<mxfile host="65bd71144e">
    <diagram id="cQC_hJ_l3crFCeVcvLKi" name="Page-1">
        <mxGraphModel dx="1044" dy="942" grid="1" gridSize="10" guides="1" tooltips="1" connect="1" arrows="1" fold="1" page="1" pageScale="1" pageWidth="850" pageHeight="1100" math="0" shadow="0">
            <root>
                <mxCell id="0"/>
                <mxCell id="1" parent="0"/>
                <mxCell id="2" value="" style="rounded=0;whiteSpace=wrap;html=1;" vertex="1" parent="1">
                    <mxGeometry x="472.5" y="330" width="367.5" height="410" as="geometry"/>
                </mxCell>
                <mxCell id="3" value="&lt;font style=&quot;font-size: 13px;&quot;&gt;auth&lt;/font&gt;" style="whiteSpace=wrap;html=1;aspect=fixed;" vertex="1" parent="1">
                    <mxGeometry x="190" y="330" width="110" height="110" as="geometry"/>
                </mxCell>
                <mxCell id="4" value="" style="ellipse;whiteSpace=wrap;html=1;" vertex="1" parent="1">
                    <mxGeometry x="365" y="50" width="155" height="150" as="geometry"/>
                </mxCell>
                <mxCell id="5" value="middleware" style="text;strokeColor=none;align=center;fillColor=none;html=1;verticalAlign=middle;whiteSpace=wrap;rounded=0;strokeWidth=10;fontSize=20;" vertex="1" parent="1">
                    <mxGeometry x="412.5" y="90" width="60" height="80" as="geometry"/>
                </mxCell>
                <mxCell id="6" value="HomePage" style="text;strokeColor=none;align=center;fillColor=none;html=1;verticalAlign=middle;whiteSpace=wrap;rounded=0;strokeWidth=10;fontSize=20;" vertex="1" parent="1">
                    <mxGeometry x="570" y="370" width="60" height="30" as="geometry"/>
                </mxCell>
                <mxCell id="12" value="" style="shape=flexArrow;endArrow=classic;html=1;fontSize=13;" edge="1" parent="1" target="2">
                    <mxGeometry width="50" height="50" relative="1" as="geometry">
                        <mxPoint x="472.5" y="160" as="sourcePoint"/>
                        <mxPoint x="492.5" y="400" as="targetPoint"/>
                    </mxGeometry>
                </mxCell>
                <mxCell id="13" value="" style="shape=flexArrow;endArrow=classic;html=1;fontSize=13;" edge="1" parent="1" source="4" target="3">
                    <mxGeometry width="50" height="50" relative="1" as="geometry">
                        <mxPoint x="400" y="500" as="sourcePoint"/>
                        <mxPoint x="450" y="450" as="targetPoint"/>
                        <Array as="points"/>
                    </mxGeometry>
                </mxCell>
                <mxCell id="16" value="navbar&lt;br&gt;" style="rounded=0;whiteSpace=wrap;html=1;strokeWidth=10;fontSize=13;" vertex="1" parent="1">
                    <mxGeometry x="500" y="440" width="310" height="50" as="geometry"/>
                </mxCell>
                <mxCell id="17" value="leaderboard" style="whiteSpace=wrap;html=1;aspect=fixed;strokeWidth=10;fontSize=13;" vertex="1" parent="1">
                    <mxGeometry x="500" y="530" width="130" height="130" as="geometry"/>
                </mxCell>
                <mxCell id="18" value="misc" style="rounded=1;whiteSpace=wrap;html=1;strokeWidth=10;fontSize=13;" vertex="1" parent="1">
                    <mxGeometry x="660" y="520" width="120" height="60" as="geometry"/>
                </mxCell>
                <mxCell id="19" value="" style="rounded=1;whiteSpace=wrap;html=1;strokeWidth=10;fontSize=13;" vertex="1" parent="1">
                    <mxGeometry x="660" y="610" width="120" height="60" as="geometry"/>
                </mxCell>
            </root>
        </mxGraphModel>
    </diagram>
</mxfile>